<?xml version="1.0" standalone="no"?><!DOCTYPE svg PUBLIC "-//W3C//DTD SVG 1.1//EN" "http://www.w3.org/Graphics/SVG/1.1/DTD/svg11.dtd"><svg t="1561562478203" class="icon" viewBox="0 0 1292 1024" version="1.1" xmlns="http://www.w3.org/2000/svg" p-id="672" xmlns:xlink="http://www.w3.org/1999/xlink" width="161.5" height="128"><defs><style type="text/css"></style></defs><path d="M283.79190919 26.70344806c-32.95551541 4.78386535-52.9768784 23.03342531-58.64664371 53.68559866-1.41744212 7.44156835-1.94898272 91.60216067-1.94898272 276.40110384 0 231.04297347 0.35436091 267.36491371 2.657703 277.28700379 7.79592928 32.77833573 30.65217333 51.55943628 62.89897005 51.55943628 29.58909215 0 49.61045514-14.52877579 61.48152636-44.29504919 2.83488267-7.26438867 3.18924357-17.89519904 4.07514507-113.39532355l0.88590154-105.42221619 86.81829374-1.0630812c85.93239378-1.06308118 92.13370128-1.41744212 123.14023556-8.15028861 92.48806063-19.84418174 144.40185785-77.78210518 152.37496676-169.73862678 5.66976689-66.61975265-13.46569458-126.50665879-52.62251746-164.06885834-35.79039965-34.37295753-74.94722253-48.37019269-146.7051999-52.97687839-34.55013719-2.12616239-218.81753975-1.94898272-234.40939829 0.17717968zM463.27544638 125.74717709c59.88690614 3.18924357 87.3498359 13.28851491 104.35913499 38.62528229 10.45363067 15.59185697 15.23749605 30.29781242 16.47775692 51.55943628 2.4805233 42.16888678-13.46569458 73.35260071-46.06684907 89.47599829-27.10857043 13.28851491-54.74867986 17.00929908-129.16436179 17.00929751H354.30962724v-97.98064623c0-54.03995958 0.53154061-98.68936811 1.24026089-99.22090874 1.59462178-1.77180145 72.64387889-1.41744212 107.72555825 0.5315406zM827.38074548 253.31691708v26.57702826h-53.15405806v70.87207743h53.15405806v54.9258611h70.87207743v-54.9258611h54.9258611v-70.87207743h-54.9258611v-53.15405808h-70.87207743v26.57702982z m40.75144467 28.34882971v30.12063434h58.46946403v8.85900888h-58.46946403v58.46946404h-8.8590089v-58.46946404h-60.24126705v-8.85900888l29.76627338-0.35436094 29.58909216-0.53154057 0.53154061-29.76627343 0.3543609-29.58909214h8.8590089v30.12063274z" fill="#000000" p-id="673"></path><path d="M441.65946317 467.52777115c-11.51671188 5.31540597-17.71801935 10.63081193-24.98240803 21.08444261-6.37848715 9.56773074-6.55566683 9.92209165-6.55566682 26.75420947v17.00929912l28.17165161 83.27469081c102.58733196 304.39557421 102.23297261 302.9781321 118.88790919 320.34179209 12.57979307 13.28851491 24.45086743 17.89519904 46.59839123 18.60391929 38.44810261 1.41744212 54.21713924-10.63081193 71.22643836-53.68559865 3.89796385-10.09927134 23.56496592-76.71902398 43.76350856-147.76828108 20.19854267-71.22643834 37.20784016-128.4556415 37.91656045-127.21538064 0.70872028 1.06308118 17.36365842 57.05202193 37.0306605 124.38049642 40.39708377 138.55491127 44.47222885 151.84342619 51.73661755 166.37220352 6.91002775 13.8200555 19.13546147 26.57702981 31.36089361 32.42397481 9.21336981 4.60668569 11.51671188 4.96104505 31.18371393 4.96104505 19.66700207 0 21.97034413-0.35436091 31.18371551-4.96104505C958.49408997 939.71298943 969.12490033 924.47549182 983.29931675 885.85020951c12.57979307-34.19577783 114.63558599-335.04774755 117.82482959-347.2731797 8.50464955-32.60115605-0.35436091-56.16612198-26.04548924-69.10027595-9.39055106-4.60668569-12.75697431-5.31540597-25.15958769-5.31540597-17.36365842 0-28.88037188 4.60668569-38.09374168 15.06031638-9.92209165 11.33953219-4.78386535-4.96104505-82.92033148 260.8092453-10.45363067 35.4360387-19.31264114 64.31641058-20.02136141 64.31641059-0.53154061 0-16.47775849-54.03995958-35.25885902-120.12817164-38.80246198-136.07438953-48.19301302-167.43528316-54.21713929-180.72379807-5.49258563-11.87107279-21.79316446-29.05755155-32.42397481-34.19577784-11.69389312-5.49258563-40.21990407-6.91002775-53.86277991-2.48052173-18.78110055 5.84694657-34.19577783 21.6159832-42.16888522 43.05478673-2.12616239 5.49258563-22.32470505 74.41568193-44.82658975 153.08368704-22.5018847 78.6680067-41.46016495 142.09851577-42.16888681 140.8582549-0.70872028-1.06308118-19.66700207-65.55667147-42.34606489-142.9844157-22.5018847-77.42774427-43.76350858-148.12264202-47.30711307-156.8044728-12.57979307-31.89243421-20.73008325-38.44810261-48.3701927-39.33400257-13.8200555-0.53154061-18.07238027 0-24.2736862 2.83488267z" fill="#000" p-id="674"></path></svg>